<svg xmlns="http://www.w3.org/2000/svg" xmlns:xlink="http://www.w3.org/1999/xlink" width="178" zoomAndPan="magnify" viewBox="0 0 133.5 599.999986" height="800" preserveAspectRatio="xMidYMid meet" version="1.0"><defs><clipPath id="2b06a1f9fe"><path d="M 0 1.121094 L 133 1.121094 L 133 598.878906 L 0 598.878906 Z M 0 1.121094 " clip-rule="nonzero"/></clipPath></defs><g clip-path="url(#2b06a1f9fe)"><path fill="#1a2d4a" d="M 66.847656 598.878906 L 66.847656 532.042969 L 133.683594 532.042969 L 133.683594 598.878906 Z M 133.683594 134.792969 L 133.683594 67.957031 L 66.847656 67.957031 L 66.847656 117.140625 L 0.0117188 117.140625 L 0.0117188 183.976562 L 66.847656 183.976562 L 66.847656 134.792969 Z M 0.0117188 465.207031 L 0.0117188 532.042969 L 66.847656 532.042969 L 66.847656 482.859375 L 133.683594 482.859375 L 133.683594 416.019531 L 66.847656 416.019531 L 66.847656 465.207031 Z M 0.0117188 349.183594 L 0.0117188 416.019531 L 66.847656 416.019531 L 66.847656 366.835938 L 133.683594 366.835938 L 133.683594 300 L 66.847656 300 L 66.847656 349.183594 Z M 0.0117188 233.160156 L 0.0117188 300 L 66.847656 300 L 66.847656 250.816406 L 133.683594 250.816406 L 133.683594 183.976562 L 66.847656 183.976562 L 66.847656 233.160156 Z M 0.0117188 1.121094 L 0.0117188 67.957031 L 66.847656 67.957031 L 66.847656 1.121094 Z M 0.0117188 1.121094 " fill-opacity="1" fill-rule="nonzero"/></g></svg>