<svg xmlns="http://www.w3.org/2000/svg" xmlns:xlink="http://www.w3.org/1999/xlink" width="3000" zoomAndPan="magnify" viewBox="0 0 2250 374.999991" height="500" preserveAspectRatio="xMidYMid meet" version="1.0"><defs><g/></defs><g fill="#1a2d4a" fill-opacity="1"><g transform="translate(0.539089, 333.743356)"><g><path d="M 209.296875 -246.234375 L 209.296875 -291.375 L 254.4375 -291.375 L 254.4375 -246.234375 Z M 12.3125 -246.234375 L 12.3125 -291.375 L 57.453125 -291.375 L 57.453125 -246.234375 Z M 61.5625 -246.234375 L 61.5625 -291.375 L 106.703125 -291.375 L 106.703125 -246.234375 Z M 110.8125 0 L 110.8125 -45.140625 L 155.953125 -45.140625 L 155.953125 0 Z M 110.8125 -49.25 L 110.8125 -94.390625 L 155.953125 -94.390625 L 155.953125 -49.25 Z M 110.8125 -98.5 L 110.8125 -143.640625 L 155.953125 -143.640625 L 155.953125 -98.5 Z M 110.8125 -147.734375 L 110.8125 -192.890625 L 155.953125 -192.890625 L 155.953125 -147.734375 Z M 110.8125 -196.984375 L 110.8125 -242.125 L 155.953125 -242.125 L 155.953125 -196.984375 Z M 110.8125 -246.234375 L 110.8125 -291.375 L 155.953125 -291.375 L 155.953125 -246.234375 Z M 160.046875 -246.234375 L 160.046875 -291.375 L 205.1875 -291.375 L 205.1875 -246.234375 Z M 160.046875 -246.234375 "/></g></g></g><g fill="#1a2d4a" fill-opacity="1"><g transform="translate(267.288857, 333.743356)"><g><path d="M 217.5 -246.234375 L 217.5 -291.375 L 262.65625 -291.375 L 262.65625 -246.234375 Z M 20.515625 0 L 20.515625 -45.140625 L 65.65625 -45.140625 L 65.65625 0 Z M 20.515625 -49.25 L 20.515625 -94.390625 L 65.65625 -94.390625 L 65.65625 -49.25 Z M 20.515625 -98.5 L 20.515625 -143.640625 L 65.65625 -143.640625 L 65.65625 -98.5 Z M 20.515625 -147.734375 L 20.515625 -192.890625 L 65.65625 -192.890625 L 65.65625 -147.734375 Z M 20.515625 -196.984375 L 20.515625 -242.125 L 65.65625 -242.125 L 65.65625 -196.984375 Z M 20.515625 -246.234375 L 20.515625 -291.375 L 65.65625 -291.375 L 65.65625 -246.234375 Z M 69.765625 0 L 69.765625 -45.140625 L 114.90625 -45.140625 L 114.90625 0 Z M 69.765625 -147.734375 L 69.765625 -192.890625 L 114.90625 -192.890625 L 114.90625 -147.734375 Z M 69.765625 -246.234375 L 69.765625 -291.375 L 114.90625 -291.375 L 114.90625 -246.234375 Z M 119.015625 0 L 119.015625 -45.140625 L 164.15625 -45.140625 L 164.15625 0 Z M 119.015625 -147.734375 L 119.015625 -192.890625 L 164.15625 -192.890625 L 164.15625 -147.734375 Z M 119.015625 -246.234375 L 119.015625 -291.375 L 164.15625 -291.375 L 164.15625 -246.234375 Z M 168.265625 0 L 168.265625 -45.140625 L 213.40625 -45.140625 L 213.40625 0 Z M 168.265625 -147.734375 L 168.265625 -192.890625 L 213.40625 -192.890625 L 213.40625 -147.734375 Z M 168.265625 -246.234375 L 168.265625 -291.375 L 213.40625 -291.375 L 213.40625 -246.234375 Z M 217.5 0 L 217.5 -45.140625 L 262.65625 -45.140625 L 262.65625 0 Z M 217.5 0 "/></g></g></g><g fill="#1a2d4a" fill-opacity="1"><g transform="translate(550.454031, 333.743356)"><g><path d="M 217.5 -196.984375 L 217.5 -242.125 L 262.65625 -242.125 L 262.65625 -196.984375 Z M 20.515625 0 L 20.515625 -45.140625 L 65.65625 -45.140625 L 65.65625 0 Z M 20.515625 -49.25 L 20.515625 -94.390625 L 65.65625 -94.390625 L 65.65625 -49.25 Z M 20.515625 -98.5 L 20.515625 -143.640625 L 65.65625 -143.640625 L 65.65625 -98.5 Z M 20.515625 -147.734375 L 20.515625 -192.890625 L 65.65625 -192.890625 L 65.65625 -147.734375 Z M 20.515625 -196.984375 L 20.515625 -242.125 L 65.65625 -242.125 L 65.65625 -196.984375 Z M 20.515625 -246.234375 L 20.515625 -291.375 L 65.65625 -291.375 L 65.65625 -246.234375 Z M 69.765625 -98.5 L 69.765625 -143.640625 L 114.90625 -143.640625 L 114.90625 -98.5 Z M 69.765625 -246.234375 L 69.765625 -291.375 L 114.90625 -291.375 L 114.90625 -246.234375 Z M 119.015625 -98.5 L 119.015625 -143.640625 L 164.15625 -143.640625 L 164.15625 -98.5 Z M 119.015625 -246.234375 L 119.015625 -291.375 L 164.15625 -291.375 L 164.15625 -246.234375 Z M 168.265625 -49.25 L 168.265625 -94.390625 L 213.40625 -94.390625 L 213.40625 -49.25 Z M 168.265625 -98.5 L 168.265625 -143.640625 L 213.40625 -143.640625 L 213.40625 -98.5 Z M 168.265625 -246.234375 L 168.265625 -291.375 L 213.40625 -291.375 L 213.40625 -246.234375 Z M 217.5 0 L 217.5 -45.140625 L 262.65625 -45.140625 L 262.65625 0 Z M 217.5 -147.734375 L 217.5 -192.890625 L 262.65625 -192.890625 L 262.65625 -147.734375 Z M 217.5 -147.734375 "/></g></g></g><g fill="#1a2d4a" fill-opacity="1"><g transform="translate(833.619205, 333.743356)"><g><path d="M 217.5 -196.984375 L 217.5 -242.125 L 262.65625 -242.125 L 262.65625 -196.984375 Z M 20.515625 0 L 20.515625 -45.140625 L 65.65625 -45.140625 L 65.65625 0 Z M 20.515625 -49.25 L 20.515625 -94.390625 L 65.65625 -94.390625 L 65.65625 -49.25 Z M 20.515625 -98.5 L 20.515625 -143.640625 L 65.65625 -143.640625 L 65.65625 -98.5 Z M 20.515625 -147.734375 L 20.515625 -192.890625 L 65.65625 -192.890625 L 65.65625 -147.734375 Z M 20.515625 -196.984375 L 20.515625 -242.125 L 65.65625 -242.125 L 65.65625 -196.984375 Z M 20.515625 -246.234375 L 20.515625 -291.375 L 65.65625 -291.375 L 65.65625 -246.234375 Z M 69.765625 -98.5 L 69.765625 -143.640625 L 114.90625 -143.640625 L 114.90625 -98.5 Z M 69.765625 -246.234375 L 69.765625 -291.375 L 114.90625 -291.375 L 114.90625 -246.234375 Z M 119.015625 -98.5 L 119.015625 -143.640625 L 164.15625 -143.640625 L 164.15625 -98.5 Z M 119.015625 -246.234375 L 119.015625 -291.375 L 164.15625 -291.375 L 164.15625 -246.234375 Z M 168.265625 -49.25 L 168.265625 -94.390625 L 213.40625 -94.390625 L 213.40625 -49.25 Z M 168.265625 -98.5 L 168.265625 -143.640625 L 213.40625 -143.640625 L 213.40625 -98.5 Z M 168.265625 -246.234375 L 168.265625 -291.375 L 213.40625 -291.375 L 213.40625 -246.234375 Z M 217.5 0 L 217.5 -45.140625 L 262.65625 -45.140625 L 262.65625 0 Z M 217.5 -147.734375 L 217.5 -192.890625 L 262.65625 -192.890625 L 262.65625 -147.734375 Z M 217.5 -147.734375 "/></g></g></g><g fill="#1a2d4a" fill-opacity="1"><g transform="translate(1116.784379, 333.743356)"><g><path d="M 217.5 -196.984375 L 217.5 -242.125 L 262.65625 -242.125 L 262.65625 -196.984375 Z M 20.515625 0 L 20.515625 -45.140625 L 65.65625 -45.140625 L 65.65625 0 Z M 20.515625 -49.25 L 20.515625 -94.390625 L 65.65625 -94.390625 L 65.65625 -49.25 Z M 20.515625 -98.5 L 20.515625 -143.640625 L 65.65625 -143.640625 L 65.65625 -98.5 Z M 20.515625 -147.734375 L 20.515625 -192.890625 L 65.65625 -192.890625 L 65.65625 -147.734375 Z M 20.515625 -196.984375 L 20.515625 -242.125 L 65.65625 -242.125 L 65.65625 -196.984375 Z M 69.765625 -147.734375 L 69.765625 -192.890625 L 114.90625 -192.890625 L 114.90625 -147.734375 Z M 69.765625 -246.234375 L 69.765625 -291.375 L 114.90625 -291.375 L 114.90625 -246.234375 Z M 119.015625 -147.734375 L 119.015625 -192.890625 L 164.15625 -192.890625 L 164.15625 -147.734375 Z M 119.015625 -246.234375 L 119.015625 -291.375 L 164.15625 -291.375 L 164.15625 -246.234375 Z M 168.265625 -147.734375 L 168.265625 -192.890625 L 213.40625 -192.890625 L 213.40625 -147.734375 Z M 168.265625 -246.234375 L 168.265625 -291.375 L 213.40625 -291.375 L 213.40625 -246.234375 Z M 217.5 0 L 217.5 -45.140625 L 262.65625 -45.140625 L 262.65625 0 Z M 217.5 -49.25 L 217.5 -94.390625 L 262.65625 -94.390625 L 262.65625 -49.25 Z M 217.5 -98.5 L 217.5 -143.640625 L 262.65625 -143.640625 L 262.65625 -98.5 Z M 217.5 -147.734375 L 217.5 -192.890625 L 262.65625 -192.890625 L 262.65625 -147.734375 Z M 217.5 -147.734375 "/></g></g></g><g fill="#1a2d4a" fill-opacity="1"><g transform="translate(1399.949553, 333.743356)"><g><path d="M 217.5 -246.234375 L 217.5 -291.375 L 262.65625 -291.375 L 262.65625 -246.234375 Z M 20.515625 0 L 20.515625 -45.140625 L 65.65625 -45.140625 L 65.65625 0 Z M 20.515625 -49.25 L 20.515625 -94.390625 L 65.65625 -94.390625 L 65.65625 -49.25 Z M 20.515625 -246.234375 L 20.515625 -291.375 L 65.65625 -291.375 L 65.65625 -246.234375 Z M 69.765625 0 L 69.765625 -45.140625 L 114.90625 -45.140625 L 114.90625 0 Z M 69.765625 -98.5 L 69.765625 -143.640625 L 114.90625 -143.640625 L 114.90625 -98.5 Z M 69.765625 -246.234375 L 69.765625 -291.375 L 114.90625 -291.375 L 114.90625 -246.234375 Z M 119.015625 0 L 119.015625 -45.140625 L 164.15625 -45.140625 L 164.15625 0 Z M 119.015625 -147.734375 L 119.015625 -192.890625 L 164.15625 -192.890625 L 164.15625 -147.734375 Z M 119.015625 -246.234375 L 119.015625 -291.375 L 164.15625 -291.375 L 164.15625 -246.234375 Z M 168.265625 0 L 168.265625 -45.140625 L 213.40625 -45.140625 L 213.40625 0 Z M 168.265625 -196.984375 L 168.265625 -242.125 L 213.40625 -242.125 L 213.40625 -196.984375 Z M 168.265625 -246.234375 L 168.265625 -291.375 L 213.40625 -291.375 L 213.40625 -246.234375 Z M 217.5 0 L 217.5 -45.140625 L 262.65625 -45.140625 L 262.65625 0 Z M 217.5 0 "/></g></g></g><g fill="#1a2d4a" fill-opacity="1"><g transform="translate(1683.114726, 333.743356)"><g><path d="M 217.5 -246.234375 L 217.5 -291.375 L 262.65625 -291.375 L 262.65625 -246.234375 Z M 20.515625 0 L 20.515625 -45.140625 L 65.65625 -45.140625 L 65.65625 0 Z M 20.515625 -49.25 L 20.515625 -94.390625 L 65.65625 -94.390625 L 65.65625 -49.25 Z M 20.515625 -246.234375 L 20.515625 -291.375 L 65.65625 -291.375 L 65.65625 -246.234375 Z M 69.765625 0 L 69.765625 -45.140625 L 114.90625 -45.140625 L 114.90625 0 Z M 69.765625 -98.5 L 69.765625 -143.640625 L 114.90625 -143.640625 L 114.90625 -98.5 Z M 69.765625 -246.234375 L 69.765625 -291.375 L 114.90625 -291.375 L 114.90625 -246.234375 Z M 119.015625 0 L 119.015625 -45.140625 L 164.15625 -45.140625 L 164.15625 0 Z M 119.015625 -147.734375 L 119.015625 -192.890625 L 164.15625 -192.890625 L 164.15625 -147.734375 Z M 119.015625 -246.234375 L 119.015625 -291.375 L 164.15625 -291.375 L 164.15625 -246.234375 Z M 168.265625 0 L 168.265625 -45.140625 L 213.40625 -45.140625 L 213.40625 0 Z M 168.265625 -196.984375 L 168.265625 -242.125 L 213.40625 -242.125 L 213.40625 -196.984375 Z M 168.265625 -246.234375 L 168.265625 -291.375 L 213.40625 -291.375 L 213.40625 -246.234375 Z M 217.5 0 L 217.5 -45.140625 L 262.65625 -45.140625 L 262.65625 0 Z M 217.5 0 "/></g></g></g><g fill="#1a2d4a" fill-opacity="1"><g transform="translate(1966.27981, 333.743356)"><g><path d="M 217.5 -196.984375 L 217.5 -242.125 L 262.65625 -242.125 L 262.65625 -196.984375 Z M 20.515625 -49.25 L 20.515625 -94.390625 L 65.65625 -94.390625 L 65.65625 -49.25 Z M 20.515625 -98.5 L 20.515625 -143.640625 L 65.65625 -143.640625 L 65.65625 -98.5 Z M 20.515625 -147.734375 L 20.515625 -192.890625 L 65.65625 -192.890625 L 65.65625 -147.734375 Z M 20.515625 -196.984375 L 20.515625 -242.125 L 65.65625 -242.125 L 65.65625 -196.984375 Z M 69.765625 0 L 69.765625 -45.140625 L 114.90625 -45.140625 L 114.90625 0 Z M 69.765625 -246.234375 L 69.765625 -291.375 L 114.90625 -291.375 L 114.90625 -246.234375 Z M 119.015625 0 L 119.015625 -45.140625 L 164.15625 -45.140625 L 164.15625 0 Z M 119.015625 -246.234375 L 119.015625 -291.375 L 164.15625 -291.375 L 164.15625 -246.234375 Z M 168.265625 0 L 168.265625 -45.140625 L 213.40625 -45.140625 L 213.40625 0 Z M 168.265625 -246.234375 L 168.265625 -291.375 L 213.40625 -291.375 L 213.40625 -246.234375 Z M 217.5 -49.25 L 217.5 -94.390625 L 262.65625 -94.390625 L 262.65625 -49.25 Z M 217.5 -98.5 L 217.5 -143.640625 L 262.65625 -143.640625 L 262.65625 -98.5 Z M 217.5 -147.734375 L 217.5 -192.890625 L 262.65625 -192.890625 L 262.65625 -147.734375 Z M 217.5 -147.734375 "/></g></g></g></svg>