<svg xmlns="http://www.w3.org/2000/svg" xmlns:xlink="http://www.w3.org/1999/xlink" width="3000" zoomAndPan="magnify" viewBox="0 0 2250 374.999991" height="500" preserveAspectRatio="xMidYMid meet" version="1.0"><defs><g/></defs><g fill="#002a55" fill-opacity="1"><g transform="translate(0.281277, 356.645132)"><g><path d="M 158.375 -297.96875 L 158.375 0 L 122.265625 0 L 122.265625 -297.96875 Z M 24.0625 -302.78125 L 24.0625 -336.953125 L 258.96875 -336.953125 L 258.96875 -302.78125 Z M 24.0625 -302.78125 "/></g></g></g><g fill="#002a55" fill-opacity="1"><g transform="translate(283.323451, 356.645132)"><g><path d="M 60.171875 -297.96875 L 60.171875 -195.4375 L 206.984375 -195.4375 L 206.984375 -161.25 L 60.171875 -161.25 L 60.171875 0 L 24.0625 -34.171875 L 24.0625 -161.25 L 42.359375 -178.578125 L 24.0625 -195.4375 L 24.0625 -297.96875 Z M 247.421875 -336.953125 L 247.421875 -302.78125 L 24.0625 -302.78125 L 60.171875 -336.953125 Z M 247.90625 -34.171875 L 247.90625 0 L 64.984375 0 L 64.984375 -34.171875 Z M 247.90625 -34.171875 "/></g></g></g><g fill="#002a55" fill-opacity="1"><g transform="translate(555.294246, 356.645132)"><g><path d="M 241.640625 0 L 197.359375 0 L 77.015625 -155.953125 L 122.75 -155.953125 Z M 24.0625 0 L 24.0625 -297.96875 L 60.171875 -297.96875 L 60.171875 0 Z M 24.0625 -302.78125 L 24.0625 -336.953125 L 206.984375 -336.953125 L 206.984375 -302.78125 Z M 76.53125 -160.78125 L 112.640625 -194.953125 L 247.90625 -194.953125 L 211.796875 -160.78125 Z M 211.796875 -199.765625 L 211.796875 -336.953125 L 247.90625 -302.78125 L 247.90625 -199.765625 Z M 211.796875 -199.765625 "/></g></g></g><g fill="#002a55" fill-opacity="1"><g transform="translate(827.264995, 356.645132)"><g><path d="M 241.640625 0 L 197.359375 0 L 77.015625 -155.953125 L 122.75 -155.953125 Z M 24.0625 0 L 24.0625 -297.96875 L 60.171875 -297.96875 L 60.171875 0 Z M 24.0625 -302.78125 L 24.0625 -336.953125 L 206.984375 -336.953125 L 206.984375 -302.78125 Z M 76.53125 -160.78125 L 112.640625 -194.953125 L 247.90625 -194.953125 L 211.796875 -160.78125 Z M 211.796875 -199.765625 L 211.796875 -336.953125 L 247.90625 -302.78125 L 247.90625 -199.765625 Z M 211.796875 -199.765625 "/></g></g></g><g fill="#002a55" fill-opacity="1"><g transform="translate(1099.235745, 356.645132)"><g><path d="M 198.796875 -182.921875 L 198.796875 -336.953125 L 234.90625 -302.78125 L 234.90625 -182.921875 Z M 60.171875 -297.484375 L 60.171875 -182.921875 L 24.0625 -182.921875 L 24.0625 -297.484375 Z M 24.0625 -302.78125 L 60.171875 -336.953125 L 193.5 -336.953125 L 193.5 -302.78125 Z M 24.0625 -143.921875 L 24.0625 -178.109375 L 234.90625 -178.109375 L 234.90625 -143.921875 Z M 198.796875 0 L 198.796875 -138.625 L 234.90625 -138.625 L 234.90625 0 Z M 60.171875 -138.625 L 60.171875 0 L 24.0625 0 L 24.0625 -138.625 Z M 60.171875 -138.625 "/></g></g></g><g fill="#002a55" fill-opacity="1"><g transform="translate(1358.209663, 356.645132)"><g><path d="M 280.15625 -34.171875 L 280.15625 0 L 24.0625 0 L 44.765625 -34.171875 Z M 31.28125 -302.78125 L 31.28125 -336.953125 L 225.75 -336.953125 L 205.0625 -302.78125 Z M 90.015625 -38.984375 L 48.140625 -38.984375 L 230.578125 -336.953125 L 272.453125 -336.953125 Z M 90.015625 -38.984375 "/></g></g></g><g fill="#002a55" fill-opacity="1"><g transform="translate(1667.24553, 356.645132)"><g><path d="M 280.15625 -34.171875 L 280.15625 0 L 24.0625 0 L 44.765625 -34.171875 Z M 31.28125 -302.78125 L 31.28125 -336.953125 L 225.75 -336.953125 L 205.0625 -302.78125 Z M 90.015625 -38.984375 L 48.140625 -38.984375 L 230.578125 -336.953125 L 272.453125 -336.953125 Z M 90.015625 -38.984375 "/></g></g></g><g fill="#002a55" fill-opacity="1"><g transform="translate(1976.281397, 356.645132)"><g><path d="M 213.25 -39.46875 L 213.25 -336.953125 L 249.34375 -300.84375 L 249.34375 -39.46875 Z M 60.171875 -297.484375 L 60.171875 0 L 24.0625 -36.109375 L 24.0625 -297.484375 Z M 24.0625 -302.78125 L 61.125 -336.953125 L 207.953125 -336.953125 L 207.953125 -302.78125 Z M 249.34375 -34.171875 L 212.28125 0 L 65.46875 0 L 65.46875 -34.171875 Z M 249.34375 -34.171875 "/></g></g></g></svg>